solid OpenSCAD_Model
  facet normal 1 -0 0
    outer loop
      vertex 10 1 9
      vertex 10 9 1.5
      vertex 10 9 9
    endloop
  endfacet
  facet normal 1 0 0
    outer loop
      vertex 10 9 1.5
      vertex 10 1 9
      vertex 10 1 1.5
    endloop
  endfacet
  facet normal 1 0 0
    outer loop
      vertex 10 9 9
      vertex 10 141 13
      vertex 10 9 13
    endloop
  endfacet
  facet normal 1 0 0
    outer loop
      vertex 10 9 1.5
      vertex 10 141 13
      vertex 10 9 9
    endloop
  endfacet
  facet normal 1 0 0
    outer loop
      vertex 10 141 13
      vertex 10 9 1.5
      vertex 10 141 -13
    endloop
  endfacet
  facet normal 1 -0 0
    outer loop
      vertex 10 9 -7
      vertex 10 141 -13
      vertex 10 9 1.5
    endloop
  endfacet
  facet normal 1 0 0
    outer loop
      vertex 10 1 -13
      vertex 10 9 -7
      vertex 10 1 -7
    endloop
  endfacet
  facet normal 1 0 0
    outer loop
      vertex 10 9 -7
      vertex 10 1 -13
      vertex 10 141 -13
    endloop
  endfacet
  facet normal 0 0 1
    outer loop
      vertex 8 137 13
      vertex 10 141 13
      vertex 8 141 13
    endloop
  endfacet
  facet normal 0 0 1
    outer loop
      vertex 10 141 13
      vertex 8 137 13
      vertex 10 9 13
    endloop
  endfacet
  facet normal 0 0 1
    outer loop
      vertex 6 9 13
      vertex 8 137 13
      vertex 6 137 13
    endloop
  endfacet
  facet normal 0 0 1
    outer loop
      vertex 8 137 13
      vertex 6 9 13
      vertex 10 9 13
    endloop
  endfacet
  facet normal 0 0 1
    outer loop
      vertex -8 141 13
      vertex -10 141 13
      vertex -8 137 13
    endloop
  endfacet
  facet normal -0 0 1
    outer loop
      vertex -8 137 13
      vertex -6 9 13
      vertex -6 137 13
    endloop
  endfacet
  facet normal 0 0 1
    outer loop
      vertex -10 9 13
      vertex -8 137 13
      vertex -10 141 13
    endloop
  endfacet
  facet normal 0 0 1
    outer loop
      vertex -8 137 13
      vertex -10 9 13
      vertex -6 9 13
    endloop
  endfacet
  facet normal 0 0 -1
    outer loop
      vertex -4 1 -13
      vertex -10 1 -13
      vertex -4 9 -13
    endloop
  endfacet
  facet normal 0 0 -1
    outer loop
      vertex 4.5 9 -13
      vertex 10 1 -13
      vertex 4.5 1 -13
    endloop
  endfacet
  facet normal 0 0 -1
    outer loop
      vertex 10 1 -13
      vertex 4.5 9 -13
      vertex 10 141 -13
    endloop
  endfacet
  facet normal 0 0 -1
    outer loop
      vertex -4 9 -13
      vertex 10 141 -13
      vertex 4.5 9 -13
    endloop
  endfacet
  facet normal 0 0 -1
    outer loop
      vertex -10 141 -13
      vertex -4 9 -13
      vertex -10 1 -13
    endloop
  endfacet
  facet normal 0 0 -1
    outer loop
      vertex -4 9 -13
      vertex -10 141 -13
      vertex 10 141 -13
    endloop
  endfacet
  facet normal -1 0 0
    outer loop
      vertex -10 1 1.5
      vertex -10 9 9
      vertex -10 9 1.5
    endloop
  endfacet
  facet normal -1 -0 0
    outer loop
      vertex -10 9 9
      vertex -10 1 1.5
      vertex -10 1 9
    endloop
  endfacet
  facet normal -1 0 0
    outer loop
      vertex -10 9 1.5
      vertex -10 141 -13
      vertex -10 9 -7
    endloop
  endfacet
  facet normal -1 0 0
    outer loop
      vertex -10 1 -13
      vertex -10 9 -7
      vertex -10 141 -13
    endloop
  endfacet
  facet normal -1 -0 0
    outer loop
      vertex -10 9 -7
      vertex -10 1 -13
      vertex -10 1 -7
    endloop
  endfacet
  facet normal -1 0 0
    outer loop
      vertex -10 141 -13
      vertex -10 9 1.5
      vertex -10 141 13
    endloop
  endfacet
  facet normal -1 0 0
    outer loop
      vertex -10 9 9
      vertex -10 141 13
      vertex -10 9 1.5
    endloop
  endfacet
  facet normal -1 -0 0
    outer loop
      vertex -10 141 13
      vertex -10 9 9
      vertex -10 9 13
    endloop
  endfacet
  facet normal 0 1 0
    outer loop
      vertex 10 141 13
      vertex 8 141 8.5
      vertex 8 141 13
    endloop
  endfacet
  facet normal 0 1 0
    outer loop
      vertex 8 141 8.5
      vertex 10 141 -13
      vertex -8 141 8.5
    endloop
  endfacet
  facet normal 0 1 -0
    outer loop
      vertex 10 141 -13
      vertex 8 141 8.5
      vertex 10 141 13
    endloop
  endfacet
  facet normal 0 1 -0
    outer loop
      vertex -8 141 8.5
      vertex -10 141 13
      vertex -8 141 13
    endloop
  endfacet
  facet normal 0 1 0
    outer loop
      vertex -8 141 8.5
      vertex -10 141 -13
      vertex -10 141 13
    endloop
  endfacet
  facet normal 0 1 0
    outer loop
      vertex -10 141 -13
      vertex -8 141 8.5
      vertex 10 141 -13
    endloop
  endfacet
  facet normal -1 0 0
    outer loop
      vertex 8 137 8.5
      vertex 8 9 9
      vertex 8 137 11
    endloop
  endfacet
  facet normal -1 0 0
    outer loop
      vertex 8 1 8.5
      vertex 8 9 9
      vertex 8 137 8.5
    endloop
  endfacet
  facet normal -1 -0 0
    outer loop
      vertex 8 9 9
      vertex 8 1 8.5
      vertex 8 1 9
    endloop
  endfacet
  facet normal -1 0 0
    outer loop
      vertex 8 137 11
      vertex 8 141 8.5
      vertex 8 137 8.5
    endloop
  endfacet
  facet normal -1 0 0
    outer loop
      vertex 8 141 8.5
      vertex 8 137 11
      vertex 8 141 13
    endloop
  endfacet
  facet normal -1 -0 0
    outer loop
      vertex 8 141 13
      vertex 8 137 11
      vertex 8 137 13
    endloop
  endfacet
  facet normal -1 -0 0
    outer loop
      vertex 8 137 11
      vertex 8 9 9
      vertex 8 9 11
    endloop
  endfacet
  facet normal -1 0 0
    outer loop
      vertex 8 9 1.5
      vertex 8 137 -9
      vertex 8 9 -7
    endloop
  endfacet
  facet normal -1 0 0
    outer loop
      vertex 8 1 -9
      vertex 8 9 -7
      vertex 8 137 -9
    endloop
  endfacet
  facet normal -1 -0 0
    outer loop
      vertex 8 9 -7
      vertex 8 1 -9
      vertex 8 1 -7
    endloop
  endfacet
  facet normal -1 0 0
    outer loop
      vertex 8 137 -9
      vertex 8 9 1.5
      vertex 8 137 6.5
    endloop
  endfacet
  facet normal -1 0 0
    outer loop
      vertex 8 1 6.5
      vertex 8 9 1.5
      vertex 8 1 1.5
    endloop
  endfacet
  facet normal -1 0 0
    outer loop
      vertex 8 9 1.5
      vertex 8 1 6.5
      vertex 8 137 6.5
    endloop
  endfacet
  facet normal 0 0 1
    outer loop
      vertex 8 137 -9
      vertex 4.5 9 -9
      vertex 8 1 -9
    endloop
  endfacet
  facet normal 0 0 1
    outer loop
      vertex 8 137 -9
      vertex -4 9 -9
      vertex 4.5 9 -9
    endloop
  endfacet
  facet normal -0 0 1
    outer loop
      vertex -8 137 -9
      vertex -4 9 -9
      vertex 8 137 -9
    endloop
  endfacet
  facet normal 0 0 1
    outer loop
      vertex -8 1 -9
      vertex -4 9 -9
      vertex -8 137 -9
    endloop
  endfacet
  facet normal 0 0 1
    outer loop
      vertex -4 9 -9
      vertex -8 1 -9
      vertex -4 1 -9
    endloop
  endfacet
  facet normal 0 0 1
    outer loop
      vertex 8 1 -9
      vertex 4.5 9 -9
      vertex 4.5 1 -9
    endloop
  endfacet
  facet normal 1 0 0
    outer loop
      vertex -8 137 11
      vertex -8 141 13
      vertex -8 137 13
    endloop
  endfacet
  facet normal 1 0 0
    outer loop
      vertex -8 141 13
      vertex -8 137 11
      vertex -8 141 8.5
    endloop
  endfacet
  facet normal 1 0 0
    outer loop
      vertex -8 137 11
      vertex -8 137 8.5
      vertex -8 141 8.5
    endloop
  endfacet
  facet normal 1 -0 0
    outer loop
      vertex -8 9 11
      vertex -8 137 8.5
      vertex -8 137 11
    endloop
  endfacet
  facet normal 1 -0 0
    outer loop
      vertex -8 9 9
      vertex -8 137 8.5
      vertex -8 9 11
    endloop
  endfacet
  facet normal 1 0 0
    outer loop
      vertex -8 1 8.5
      vertex -8 9 9
      vertex -8 1 9
    endloop
  endfacet
  facet normal 1 0 0
    outer loop
      vertex -8 9 9
      vertex -8 1 8.5
      vertex -8 137 8.5
    endloop
  endfacet
  facet normal 1 0 0
    outer loop
      vertex -8 137 6.5
      vertex -8 9 1.5
      vertex -8 137 -9
    endloop
  endfacet
  facet normal 1 -0 0
    outer loop
      vertex -8 1 6.5
      vertex -8 9 1.5
      vertex -8 137 6.5
    endloop
  endfacet
  facet normal 1 0 0
    outer loop
      vertex -8 9 1.5
      vertex -8 1 6.5
      vertex -8 1 1.5
    endloop
  endfacet
  facet normal 1 -0 0
    outer loop
      vertex -8 9 -7
      vertex -8 137 -9
      vertex -8 9 1.5
    endloop
  endfacet
  facet normal 1 0 0
    outer loop
      vertex -8 1 -9
      vertex -8 9 -7
      vertex -8 1 -7
    endloop
  endfacet
  facet normal 1 0 0
    outer loop
      vertex -8 9 -7
      vertex -8 1 -9
      vertex -8 137 -9
    endloop
  endfacet
  facet normal 0 -1 0
    outer loop
      vertex -8 137 -9
      vertex -6 137 6.5
      vertex -8 137 6.5
    endloop
  endfacet
  facet normal 0 -1 -0
    outer loop
      vertex -6 137 6.5
      vertex -8 137 -9
      vertex 6 137 6.5
    endloop
  endfacet
  facet normal 0 -1 0
    outer loop
      vertex 8 137 -9
      vertex 6 137 6.5
      vertex -8 137 -9
    endloop
  endfacet
  facet normal 0 -1 0
    outer loop
      vertex 6 137 6.5
      vertex 8 137 -9
      vertex 8 137 6.5
    endloop
  endfacet
  facet normal 0 -1 0
    outer loop
      vertex -6 137 6.5
      vertex 6 137 8.5
      vertex -6 137 8.5
    endloop
  endfacet
  facet normal 0 -1 -0
    outer loop
      vertex 6 137 8.5
      vertex -6 137 6.5
      vertex 6 137 6.5
    endloop
  endfacet
  facet normal 0 0 1
    outer loop
      vertex 8 141 8.5
      vertex 6 137 8.5
      vertex 8 137 8.5
    endloop
  endfacet
  facet normal 0 0 1
    outer loop
      vertex 8 141 8.5
      vertex -6 137 8.5
      vertex 6 137 8.5
    endloop
  endfacet
  facet normal -0 0 1
    outer loop
      vertex -8 141 8.5
      vertex -6 137 8.5
      vertex 8 141 8.5
    endloop
  endfacet
  facet normal 0 0 1
    outer loop
      vertex -6 137 8.5
      vertex -8 141 8.5
      vertex -8 137 8.5
    endloop
  endfacet
  facet normal 1 -0 0
    outer loop
      vertex -6 9 13
      vertex -6 137 11
      vertex -6 137 13
    endloop
  endfacet
  facet normal 1 0 0
    outer loop
      vertex -6 137 11
      vertex -6 9 13
      vertex -6 9 11
    endloop
  endfacet
  facet normal 0 0 -1
    outer loop
      vertex -8 9 11
      vertex -6 137 11
      vertex -6 9 11
    endloop
  endfacet
  facet normal -0 0 -1
    outer loop
      vertex -6 137 11
      vertex -8 9 11
      vertex -8 137 11
    endloop
  endfacet
  facet normal 0 1 -0
    outer loop
      vertex -6 137 11
      vertex -8 137 13
      vertex -6 137 13
    endloop
  endfacet
  facet normal 0 1 0
    outer loop
      vertex -8 137 13
      vertex -6 137 11
      vertex -8 137 11
    endloop
  endfacet
  facet normal 1 -0 0
    outer loop
      vertex -6 1 8.5
      vertex -6 137 6.5
      vertex -6 137 8.5
    endloop
  endfacet
  facet normal 1 0 0
    outer loop
      vertex -6 137 6.5
      vertex -6 1 8.5
      vertex -6 1 6.5
    endloop
  endfacet
  facet normal -0 0 1
    outer loop
      vertex -8 137 8.5
      vertex -6 1 8.5
      vertex -6 137 8.5
    endloop
  endfacet
  facet normal 0 0 1
    outer loop
      vertex -6 1 8.5
      vertex -8 137 8.5
      vertex -8 1 8.5
    endloop
  endfacet
  facet normal 0 0 -1
    outer loop
      vertex -8 1 6.5
      vertex -6 137 6.5
      vertex -6 1 6.5
    endloop
  endfacet
  facet normal -0 0 -1
    outer loop
      vertex -6 137 6.5
      vertex -8 1 6.5
      vertex -8 137 6.5
    endloop
  endfacet
  facet normal 0 0 -1
    outer loop
      vertex 6 9 11
      vertex 8 137 11
      vertex 8 9 11
    endloop
  endfacet
  facet normal -0 0 -1
    outer loop
      vertex 8 137 11
      vertex 6 9 11
      vertex 6 137 11
    endloop
  endfacet
  facet normal -1 0 0
    outer loop
      vertex 6 9 11
      vertex 6 137 13
      vertex 6 137 11
    endloop
  endfacet
  facet normal -1 -0 0
    outer loop
      vertex 6 137 13
      vertex 6 9 11
      vertex 6 9 13
    endloop
  endfacet
  facet normal 0 1 -0
    outer loop
      vertex 8 137 11
      vertex 6 137 13
      vertex 8 137 13
    endloop
  endfacet
  facet normal 0 1 0
    outer loop
      vertex 6 137 13
      vertex 8 137 11
      vertex 6 137 11
    endloop
  endfacet
  facet normal -0 0 1
    outer loop
      vertex 6 137 8.5
      vertex 8 1 8.5
      vertex 8 137 8.5
    endloop
  endfacet
  facet normal 0 0 1
    outer loop
      vertex 8 1 8.5
      vertex 6 137 8.5
      vertex 6 1 8.5
    endloop
  endfacet
  facet normal 0 0 -1
    outer loop
      vertex 6 1 6.5
      vertex 8 137 6.5
      vertex 8 1 6.5
    endloop
  endfacet
  facet normal -0 0 -1
    outer loop
      vertex 8 137 6.5
      vertex 6 1 6.5
      vertex 6 137 6.5
    endloop
  endfacet
  facet normal -1 0 0
    outer loop
      vertex 6 1 6.5
      vertex 6 137 8.5
      vertex 6 137 6.5
    endloop
  endfacet
  facet normal -1 -0 0
    outer loop
      vertex 6 137 8.5
      vertex 6 1 6.5
      vertex 6 1 8.5
    endloop
  endfacet
  facet normal 0 -1 0
    outer loop
      vertex -10 9 13
      vertex -8 9 11
      vertex -6 9 13
    endloop
  endfacet
  facet normal 0 -1 0
    outer loop
      vertex -10 9 9
      vertex -8 9 11
      vertex -10 9 13
    endloop
  endfacet
  facet normal 0 -1 -0
    outer loop
      vertex -8 9 11
      vertex -10 9 9
      vertex -8 9 9
    endloop
  endfacet
  facet normal 0 -1 -0
    outer loop
      vertex -6 9 13
      vertex -8 9 11
      vertex -6 9 11
    endloop
  endfacet
  facet normal 0 -1 0
    outer loop
      vertex 8 9 11
      vertex 6 9 13
      vertex 6 9 11
    endloop
  endfacet
  facet normal 0 -1 0
    outer loop
      vertex 6 9 13
      vertex 8 9 11
      vertex 10 9 13
    endloop
  endfacet
  facet normal 0 -1 0
    outer loop
      vertex 10 9 9
      vertex 8 9 11
      vertex 8 9 9
    endloop
  endfacet
  facet normal 0 -1 0
    outer loop
      vertex 8 9 11
      vertex 10 9 9
      vertex 10 9 13
    endloop
  endfacet
  facet normal 0 -1 0
    outer loop
      vertex -10 9 -7
      vertex -8 9 1.5
      vertex -10 9 1.5
    endloop
  endfacet
  facet normal 0 -1 -0
    outer loop
      vertex -8 9 1.5
      vertex -10 9 -7
      vertex -8 9 -7
    endloop
  endfacet
  facet normal 0 -1 0
    outer loop
      vertex 8 9 -7
      vertex 10 9 1.5
      vertex 8 9 1.5
    endloop
  endfacet
  facet normal 0 -1 -0
    outer loop
      vertex 10 9 1.5
      vertex 8 9 -7
      vertex 10 9 -7
    endloop
  endfacet
  facet normal 0 -1 0
    outer loop
      vertex -4 9 -13
      vertex 4.5 9 -9
      vertex -4 9 -9
    endloop
  endfacet
  facet normal 0 -1 -0
    outer loop
      vertex 4.5 9 -9
      vertex -4 9 -13
      vertex 4.5 9 -13
    endloop
  endfacet
  facet normal 0 0 -1
    outer loop
      vertex -10 1 1.5
      vertex -8 9 1.5
      vertex -8 1 1.5
    endloop
  endfacet
  facet normal -0 0 -1
    outer loop
      vertex -8 9 1.5
      vertex -10 1 1.5
      vertex -10 9 1.5
    endloop
  endfacet
  facet normal -0 0 1
    outer loop
      vertex -10 9 -7
      vertex -8 1 -7
      vertex -8 9 -7
    endloop
  endfacet
  facet normal 0 0 1
    outer loop
      vertex -8 1 -7
      vertex -10 9 -7
      vertex -10 1 -7
    endloop
  endfacet
  facet normal -0 0 1
    outer loop
      vertex -10 9 9
      vertex -8 1 9
      vertex -8 9 9
    endloop
  endfacet
  facet normal 0 0 1
    outer loop
      vertex -8 1 9
      vertex -10 9 9
      vertex -10 1 9
    endloop
  endfacet
  facet normal -1 0 0
    outer loop
      vertex 4.5 1 -13
      vertex 4.5 9 -9
      vertex 4.5 9 -13
    endloop
  endfacet
  facet normal -1 -0 0
    outer loop
      vertex 4.5 9 -9
      vertex 4.5 1 -13
      vertex 4.5 1 -9
    endloop
  endfacet
  facet normal 1 -0 0
    outer loop
      vertex -4 1 -9
      vertex -4 9 -13
      vertex -4 9 -9
    endloop
  endfacet
  facet normal 1 0 0
    outer loop
      vertex -4 9 -13
      vertex -4 1 -9
      vertex -4 1 -13
    endloop
  endfacet
  facet normal 0 0 -1
    outer loop
      vertex 8 1 1.5
      vertex 10 9 1.5
      vertex 10 1 1.5
    endloop
  endfacet
  facet normal -0 0 -1
    outer loop
      vertex 10 9 1.5
      vertex 8 1 1.5
      vertex 8 9 1.5
    endloop
  endfacet
  facet normal -0 0 1
    outer loop
      vertex 8 9 -7
      vertex 10 1 -7
      vertex 10 9 -7
    endloop
  endfacet
  facet normal 0 0 1
    outer loop
      vertex 10 1 -7
      vertex 8 9 -7
      vertex 8 1 -7
    endloop
  endfacet
  facet normal -0 0 1
    outer loop
      vertex 8 9 9
      vertex 10 1 9
      vertex 10 9 9
    endloop
  endfacet
  facet normal 0 0 1
    outer loop
      vertex 10 1 9
      vertex 8 9 9
      vertex 8 1 9
    endloop
  endfacet
  facet normal 0 -1 0
    outer loop
      vertex -10 1 9
      vertex -8 1 8.5
      vertex -8 1 9
    endloop
  endfacet
  facet normal 0 -1 0
    outer loop
      vertex -8 1 8.5
      vertex -8 1 6.5
      vertex -6 1 8.5
    endloop
  endfacet
  facet normal 0 -1 0
    outer loop
      vertex -10 1 9
      vertex -8 1 6.5
      vertex -8 1 8.5
    endloop
  endfacet
  facet normal 0 -1 0
    outer loop
      vertex -10 1 1.5
      vertex -8 1 6.5
      vertex -10 1 9
    endloop
  endfacet
  facet normal 0 -1 -0
    outer loop
      vertex -8 1 6.5
      vertex -10 1 1.5
      vertex -8 1 1.5
    endloop
  endfacet
  facet normal 0 -1 -0
    outer loop
      vertex -6 1 8.5
      vertex -8 1 6.5
      vertex -6 1 6.5
    endloop
  endfacet
  facet normal 0 -1 0
    outer loop
      vertex -10 1 -7
      vertex -8 1 -9
      vertex -8 1 -7
    endloop
  endfacet
  facet normal 0 -1 0
    outer loop
      vertex -10 1 -13
      vertex -8 1 -9
      vertex -10 1 -7
    endloop
  endfacet
  facet normal 0 -1 0
    outer loop
      vertex -4 1 -13
      vertex -8 1 -9
      vertex -10 1 -13
    endloop
  endfacet
  facet normal 0 -1 0
    outer loop
      vertex -8 1 -9
      vertex -4 1 -13
      vertex -4 1 -9
    endloop
  endfacet
  facet normal 0 -1 0
    outer loop
      vertex 6 1 8.5
      vertex 6 1 6.5
      vertex 8 1 8.5
    endloop
  endfacet
  facet normal 0 -1 0
    outer loop
      vertex 8 1 8.5
      vertex 10 1 9
      vertex 8 1 9
    endloop
  endfacet
  facet normal 0 -1 0
    outer loop
      vertex 8 1 6.5
      vertex 8 1 8.5
      vertex 6 1 6.5
    endloop
  endfacet
  facet normal 0 -1 0
    outer loop
      vertex 8 1 8.5
      vertex 8 1 6.5
      vertex 10 1 9
    endloop
  endfacet
  facet normal 0 -1 0
    outer loop
      vertex 10 1 1.5
      vertex 8 1 6.5
      vertex 8 1 1.5
    endloop
  endfacet
  facet normal 0 -1 0
    outer loop
      vertex 8 1 6.5
      vertex 10 1 1.5
      vertex 10 1 9
    endloop
  endfacet
  facet normal 0 -1 0
    outer loop
      vertex 4.5 1 -9
      vertex 4.5 1 -13
      vertex 8 1 -9
    endloop
  endfacet
  facet normal 0 -1 0
    outer loop
      vertex 8 1 -9
      vertex 10 1 -7
      vertex 8 1 -7
    endloop
  endfacet
  facet normal 0 -1 0
    outer loop
      vertex 10 1 -13
      vertex 8 1 -9
      vertex 4.5 1 -13
    endloop
  endfacet
  facet normal 0 -1 0
    outer loop
      vertex 8 1 -9
      vertex 10 1 -13
      vertex 10 1 -7
    endloop
  endfacet
endsolid OpenSCAD_Model
