solid OpenSCAD_Model
  facet normal 0 -1 0
    outer loop
      vertex 0.5 5 9.25
      vertex 0 5 12.5
      vertex -4 5 9.25
    endloop
  endfacet
  facet normal 0 -1 0
    outer loop
      vertex 0 5 12.5
      vertex 0.5 5 9.25
      vertex 0.5 5 12
    endloop
  endfacet
  facet normal 0 -1 0
    outer loop
      vertex -5.5 5 14.75
      vertex -3.5 5 12.5
      vertex -3.5 5 14.75
    endloop
  endfacet
  facet normal 0 -1 0
    outer loop
      vertex -4 5 9.25
      vertex 0 5 12.5
      vertex -3.5 5 12.5
    endloop
  endfacet
  facet normal 0 -1 0
    outer loop
      vertex 0 5 12.5
      vertex 0.5 5 12
      vertex 4.5 5 12.5
    endloop
  endfacet
  facet normal 0 -1 0
    outer loop
      vertex -5.5 5 12
      vertex -3.5 5 12.5
      vertex -5.5 5 14.75
    endloop
  endfacet
  facet normal 0 -1 0
    outer loop
      vertex -4 5 12
      vertex -3.5 5 12.5
      vertex -5.5 5 12
    endloop
  endfacet
  facet normal 0 -1 0
    outer loop
      vertex -4 5 9.25
      vertex -3.5 5 12.5
      vertex -4 5 12
    endloop
  endfacet
  facet normal 0 -1 0
    outer loop
      vertex 4 5 12
      vertex 4.5 5 12.5
      vertex 0.5 5 12
    endloop
  endfacet
  facet normal 0 -1 0
    outer loop
      vertex 5.5 5 10.75
      vertex 4.5 5 12.5
      vertex 4 5 12
    endloop
  endfacet
  facet normal 0 -1 0
    outer loop
      vertex 4.5 5 12.5
      vertex 5.5 5 10.75
      vertex 5.5 5 12.5
    endloop
  endfacet
  facet normal 0 -1 0
    outer loop
      vertex 4 5 9.25
      vertex 5.5 5 10.75
      vertex 4 5 12
    endloop
  endfacet
  facet normal 0 -1 0
    outer loop
      vertex 6.75 5 9.25
      vertex 5.5 5 10.75
      vertex 4 5 9.25
    endloop
  endfacet
  facet normal 0 -1 0
    outer loop
      vertex 5.5 5 10.75
      vertex 6.75 5 9.25
      vertex 6.75 5 10.75
    endloop
  endfacet
  facet normal 0 -1 0
    outer loop
      vertex 0 5 12.5
      vertex 4.5 5 14.75
      vertex 0 5 14.75
    endloop
  endfacet
  facet normal 0 -1 -0
    outer loop
      vertex 4.5 5 14.75
      vertex 0 5 12.5
      vertex 4.5 5 12.5
    endloop
  endfacet
  facet normal -1 0 0
    outer loop
      vertex -3.5 1 12.5
      vertex -3.5 5 14.75
      vertex -3.5 5 12.5
    endloop
  endfacet
  facet normal -1 -0 0
    outer loop
      vertex -3.5 5 14.75
      vertex -3.5 1 12.5
      vertex -3.5 1 14.75
    endloop
  endfacet
  facet normal -0 0 1
    outer loop
      vertex -5.5 5 12
      vertex -4 1 12
      vertex -4 5 12
    endloop
  endfacet
  facet normal 0 0 1
    outer loop
      vertex -4 1 12
      vertex -5.5 5 12
      vertex -5.5 1 12
    endloop
  endfacet
  facet normal -1 0 0
    outer loop
      vertex 0.5 1 9.25
      vertex 0.5 5 12
      vertex 0.5 5 9.25
    endloop
  endfacet
  facet normal -1 -0 0
    outer loop
      vertex 0.5 5 12
      vertex 0.5 1 9.25
      vertex 0.5 1 12
    endloop
  endfacet
  facet normal 1 -0 0
    outer loop
      vertex -4 1 12
      vertex -4 5 9.25
      vertex -4 5 12
    endloop
  endfacet
  facet normal 1 0 0
    outer loop
      vertex -4 5 9.25
      vertex -4 1 12
      vertex -4 1 9.25
    endloop
  endfacet
  facet normal 0 0 -1
    outer loop
      vertex -3.5 1 12.5
      vertex 0 5 12.5
      vertex 0 1 12.5
    endloop
  endfacet
  facet normal -0 0 -1
    outer loop
      vertex 0 5 12.5
      vertex -3.5 1 12.5
      vertex -3.5 5 12.5
    endloop
  endfacet
  facet normal -1 0 0
    outer loop
      vertex 4.5 1 12.5
      vertex 4.5 5 14.75
      vertex 4.5 5 12.5
    endloop
  endfacet
  facet normal -1 -0 0
    outer loop
      vertex 4.5 5 14.75
      vertex 4.5 1 12.5
      vertex 4.5 1 14.75
    endloop
  endfacet
  facet normal 1 -0 0
    outer loop
      vertex 0 1 14.75
      vertex 0 5 12.5
      vertex 0 5 14.75
    endloop
  endfacet
  facet normal 1 0 0
    outer loop
      vertex 0 5 12.5
      vertex 0 1 14.75
      vertex 0 1 12.5
    endloop
  endfacet
  facet normal -0 0 1
    outer loop
      vertex 0.5 5 12
      vertex 4 1 12
      vertex 4 5 12
    endloop
  endfacet
  facet normal 0 0 1
    outer loop
      vertex 4 1 12
      vertex 0.5 5 12
      vertex 0.5 1 12
    endloop
  endfacet
  facet normal 1 -0 0
    outer loop
      vertex 4 1 12
      vertex 4 5 9.25
      vertex 4 5 12
    endloop
  endfacet
  facet normal 1 0 0
    outer loop
      vertex 4 5 9.25
      vertex 4 1 12
      vertex 4 1 9.25
    endloop
  endfacet
  facet normal 0 0 -1
    outer loop
      vertex 4.5 1 12.5
      vertex 5.5 5 12.5
      vertex 5.5 1 12.5
    endloop
  endfacet
  facet normal -0 0 -1
    outer loop
      vertex 5.5 5 12.5
      vertex 4.5 1 12.5
      vertex 4.5 5 12.5
    endloop
  endfacet
  facet normal 0 -1 0
    outer loop
      vertex -6.75 1 10.75
      vertex -6.75 1 9.25
      vertex -5.5 1 10.75
    endloop
  endfacet
  facet normal 0 -1 0
    outer loop
      vertex -5.5 1 10.75
      vertex -4 1 12
      vertex -5.5 1 12
    endloop
  endfacet
  facet normal 0 -1 0
    outer loop
      vertex -4 1 9.25
      vertex -5.5 1 10.75
      vertex -6.75 1 9.25
    endloop
  endfacet
  facet normal 0 -1 0
    outer loop
      vertex -5.5 1 10.75
      vertex -4 1 9.25
      vertex -4 1 12
    endloop
  endfacet
  facet normal 0 -1 0
    outer loop
      vertex -3.5 1 12.5
      vertex 0 1 14.75
      vertex -3.5 1 14.75
    endloop
  endfacet
  facet normal 0 -1 -0
    outer loop
      vertex 0 1 14.75
      vertex -3.5 1 12.5
      vertex 0 1 12.5
    endloop
  endfacet
  facet normal 0 -1 0
    outer loop
      vertex 0.5 1 9.25
      vertex 4 1 12
      vertex 0.5 1 12
    endloop
  endfacet
  facet normal 0 -1 -0
    outer loop
      vertex 4 1 12
      vertex 0.5 1 9.25
      vertex 4 1 9.25
    endloop
  endfacet
  facet normal 0 -1 0
    outer loop
      vertex 4.5 1 12.5
      vertex 5.5 1 14.75
      vertex 4.5 1 14.75
    endloop
  endfacet
  facet normal 0 -1 -0
    outer loop
      vertex 5.5 1 14.75
      vertex 4.5 1 12.5
      vertex 5.5 1 12.5
    endloop
  endfacet
  facet normal 0 0 1
    outer loop
      vertex 5.5 137 14.75
      vertex 4.5 5 14.75
      vertex 5.5 1 14.75
    endloop
  endfacet
  facet normal 0 0 1
    outer loop
      vertex 5.5 137 14.75
      vertex 0 5 14.75
      vertex 4.5 5 14.75
    endloop
  endfacet
  facet normal 0 0 1
    outer loop
      vertex 0 5 14.75
      vertex -3.5 5 14.75
      vertex 0 1 14.75
    endloop
  endfacet
  facet normal -0 0 1
    outer loop
      vertex -5.5 137 14.75
      vertex 0 5 14.75
      vertex 5.5 137 14.75
    endloop
  endfacet
  facet normal 0 0 1
    outer loop
      vertex 0 5 14.75
      vertex -5.5 137 14.75
      vertex -3.5 5 14.75
    endloop
  endfacet
  facet normal 0 0 1
    outer loop
      vertex -3.5 5 14.75
      vertex -5.5 137 14.75
      vertex -5.5 5 14.75
    endloop
  endfacet
  facet normal 0 0 1
    outer loop
      vertex 5.5 1 14.75
      vertex 4.5 5 14.75
      vertex 4.5 1 14.75
    endloop
  endfacet
  facet normal 0 0 1
    outer loop
      vertex 0 1 14.75
      vertex -3.5 5 14.75
      vertex -3.5 1 14.75
    endloop
  endfacet
  facet normal 0 0 -1
    outer loop
      vertex -4 1 9.25
      vertex -6.75 1 9.25
      vertex -4 5 9.25
    endloop
  endfacet
  facet normal 0 0 -1
    outer loop
      vertex 4 1 9.25
      vertex 0.5 1 9.25
      vertex 4 5 9.25
    endloop
  endfacet
  facet normal 0 0 -1
    outer loop
      vertex 4 5 9.25
      vertex 6.75 137 9.25
      vertex 6.75 5 9.25
    endloop
  endfacet
  facet normal 0 0 -1
    outer loop
      vertex 0.5 5 9.25
      vertex 4 5 9.25
      vertex 0.5 1 9.25
    endloop
  endfacet
  facet normal 0 0 -1
    outer loop
      vertex 4 5 9.25
      vertex 0.5 5 9.25
      vertex 6.75 137 9.25
    endloop
  endfacet
  facet normal 0 0 -1
    outer loop
      vertex -6.75 137 9.25
      vertex 0.5 5 9.25
      vertex -4 5 9.25
    endloop
  endfacet
  facet normal 0 0 -1
    outer loop
      vertex -6.75 137 9.25
      vertex -4 5 9.25
      vertex -6.75 1 9.25
    endloop
  endfacet
  facet normal 0 0 -1
    outer loop
      vertex 0.5 5 9.25
      vertex -6.75 137 9.25
      vertex 6.75 137 9.25
    endloop
  endfacet
  facet normal 0 1 -0
    outer loop
      vertex 6.75 137 9.25
      vertex 5.5 137 10.75
      vertex 6.75 137 10.75
    endloop
  endfacet
  facet normal 0 1 0
    outer loop
      vertex 5.5 137 10.75
      vertex 6.75 137 9.25
      vertex -5.5 137 10.75
    endloop
  endfacet
  facet normal 0 1 0
    outer loop
      vertex -6.75 137 9.25
      vertex -5.5 137 10.75
      vertex 6.75 137 9.25
    endloop
  endfacet
  facet normal 0 1 0
    outer loop
      vertex -5.5 137 10.75
      vertex -6.75 137 9.25
      vertex -6.75 137 10.75
    endloop
  endfacet
  facet normal 0 1 -0
    outer loop
      vertex 5.5 137 10.75
      vertex -5.5 137 14.75
      vertex 5.5 137 14.75
    endloop
  endfacet
  facet normal 0 1 0
    outer loop
      vertex -5.5 137 14.75
      vertex 5.5 137 10.75
      vertex -5.5 137 10.75
    endloop
  endfacet
  facet normal 1 -0 0
    outer loop
      vertex 6.75 5 10.75
      vertex 6.75 137 9.25
      vertex 6.75 137 10.75
    endloop
  endfacet
  facet normal 1 0 0
    outer loop
      vertex 6.75 137 9.25
      vertex 6.75 5 10.75
      vertex 6.75 5 9.25
    endloop
  endfacet
  facet normal -0 0 1
    outer loop
      vertex 5.5 137 10.75
      vertex 6.75 5 10.75
      vertex 6.75 137 10.75
    endloop
  endfacet
  facet normal 0 0 1
    outer loop
      vertex 6.75 5 10.75
      vertex 5.5 137 10.75
      vertex 5.5 5 10.75
    endloop
  endfacet
  facet normal -0 0 1
    outer loop
      vertex -6.75 137 10.75
      vertex -5.5 1 10.75
      vertex -5.5 137 10.75
    endloop
  endfacet
  facet normal 0 0 1
    outer loop
      vertex -5.5 1 10.75
      vertex -6.75 137 10.75
      vertex -6.75 1 10.75
    endloop
  endfacet
  facet normal -1 0 0
    outer loop
      vertex -6.75 1 9.25
      vertex -6.75 137 10.75
      vertex -6.75 137 9.25
    endloop
  endfacet
  facet normal -1 -0 0
    outer loop
      vertex -6.75 137 10.75
      vertex -6.75 1 9.25
      vertex -6.75 1 10.75
    endloop
  endfacet
  facet normal 1 0 0
    outer loop
      vertex 5.5 137 14.75
      vertex 5.5 5 12.5
      vertex 5.5 137 10.75
    endloop
  endfacet
  facet normal 1 -0 0
    outer loop
      vertex 5.5 1 14.75
      vertex 5.5 5 12.5
      vertex 5.5 137 14.75
    endloop
  endfacet
  facet normal 1 0 0
    outer loop
      vertex 5.5 5 12.5
      vertex 5.5 1 14.75
      vertex 5.5 1 12.5
    endloop
  endfacet
  facet normal 1 0 0
    outer loop
      vertex 5.5 137 10.75
      vertex 5.5 5 12.5
      vertex 5.5 5 10.75
    endloop
  endfacet
  facet normal -1 0 0
    outer loop
      vertex -5.5 137 10.75
      vertex -5.5 5 12
      vertex -5.5 137 14.75
    endloop
  endfacet
  facet normal -1 0 0
    outer loop
      vertex -5.5 1 10.75
      vertex -5.5 5 12
      vertex -5.5 137 10.75
    endloop
  endfacet
  facet normal -1 -0 0
    outer loop
      vertex -5.5 5 12
      vertex -5.5 1 10.75
      vertex -5.5 1 12
    endloop
  endfacet
  facet normal -1 -0 0
    outer loop
      vertex -5.5 137 14.75
      vertex -5.5 5 12
      vertex -5.5 5 14.75
    endloop
  endfacet
endsolid OpenSCAD_Model
