solid OpenSCAD_Model
  facet normal 1 -0 0
    outer loop
      vertex 5.75 -30 15
      vertex 5.75 30 11
      vertex 5.75 30 15
    endloop
  endfacet
  facet normal 1 0 0
    outer loop
      vertex 5.75 30 11
      vertex 5.75 -30 15
      vertex 5.75 -30 11
    endloop
  endfacet
  facet normal -0 0 1
    outer loop
      vertex -5.75 30 15
      vertex 5.75 -30 15
      vertex 5.75 30 15
    endloop
  endfacet
  facet normal 0 0 1
    outer loop
      vertex 5.75 -30 15
      vertex -5.75 30 15
      vertex -5.75 -30 15
    endloop
  endfacet
  facet normal 0 0 -1
    outer loop
      vertex -7.75 -30 9
      vertex 7.75 30 9
      vertex 7.75 -30 9
    endloop
  endfacet
  facet normal -0 0 -1
    outer loop
      vertex 7.75 30 9
      vertex -7.75 -30 9
      vertex -7.75 30 9
    endloop
  endfacet
  facet normal 1 -0 0
    outer loop
      vertex 7.75 -30 11
      vertex 7.75 30 9
      vertex 7.75 30 11
    endloop
  endfacet
  facet normal 1 0 0
    outer loop
      vertex 7.75 30 9
      vertex 7.75 -30 11
      vertex 7.75 -30 9
    endloop
  endfacet
  facet normal -0 0 1
    outer loop
      vertex 5.75 30 11
      vertex 7.75 -30 11
      vertex 7.75 30 11
    endloop
  endfacet
  facet normal 0 0 1
    outer loop
      vertex 7.75 -30 11
      vertex 5.75 30 11
      vertex 5.75 -30 11
    endloop
  endfacet
  facet normal -1 0 0
    outer loop
      vertex -5.75 -30 11
      vertex -5.75 30 15
      vertex -5.75 30 11
    endloop
  endfacet
  facet normal -1 -0 0
    outer loop
      vertex -5.75 30 15
      vertex -5.75 -30 11
      vertex -5.75 -30 15
    endloop
  endfacet
  facet normal -0 0 1
    outer loop
      vertex -7.75 30 11
      vertex -5.75 -30 11
      vertex -5.75 30 11
    endloop
  endfacet
  facet normal 0 0 1
    outer loop
      vertex -5.75 -30 11
      vertex -7.75 30 11
      vertex -7.75 -30 11
    endloop
  endfacet
  facet normal -1 0 0
    outer loop
      vertex -7.75 -30 9
      vertex -7.75 30 11
      vertex -7.75 30 9
    endloop
  endfacet
  facet normal -1 -0 0
    outer loop
      vertex -7.75 30 11
      vertex -7.75 -30 9
      vertex -7.75 -30 11
    endloop
  endfacet
  facet normal 0 1 -0
    outer loop
      vertex 7.75 30 9
      vertex 5.75 30 11
      vertex 7.75 30 11
    endloop
  endfacet
  facet normal 0 1 0
    outer loop
      vertex 5.75 30 11
      vertex 7.75 30 9
      vertex -5.75 30 11
    endloop
  endfacet
  facet normal 0 1 0
    outer loop
      vertex -7.75 30 9
      vertex -5.75 30 11
      vertex 7.75 30 9
    endloop
  endfacet
  facet normal 0 1 0
    outer loop
      vertex -5.75 30 11
      vertex -7.75 30 9
      vertex -7.75 30 11
    endloop
  endfacet
  facet normal 0 1 -0
    outer loop
      vertex 5.75 30 11
      vertex -5.75 30 15
      vertex 5.75 30 15
    endloop
  endfacet
  facet normal 0 1 0
    outer loop
      vertex -5.75 30 15
      vertex 5.75 30 11
      vertex -5.75 30 11
    endloop
  endfacet
  facet normal 0 -1 0
    outer loop
      vertex -7.75 -30 9
      vertex -5.75 -30 11
      vertex -7.75 -30 11
    endloop
  endfacet
  facet normal 0 -1 -0
    outer loop
      vertex -5.75 -30 11
      vertex -7.75 -30 9
      vertex 5.75 -30 11
    endloop
  endfacet
  facet normal 0 -1 0
    outer loop
      vertex 7.75 -30 9
      vertex 5.75 -30 11
      vertex -7.75 -30 9
    endloop
  endfacet
  facet normal 0 -1 0
    outer loop
      vertex 5.75 -30 11
      vertex 7.75 -30 9
      vertex 7.75 -30 11
    endloop
  endfacet
  facet normal 0 -1 0
    outer loop
      vertex -5.75 -30 11
      vertex 5.75 -30 15
      vertex -5.75 -30 15
    endloop
  endfacet
  facet normal 0 -1 -0
    outer loop
      vertex 5.75 -30 15
      vertex -5.75 -30 11
      vertex 5.75 -30 11
    endloop
  endfacet
endsolid OpenSCAD_Model
