solid OpenSCAD_Model
  facet normal 0 1 0
    outer loop
      vertex 0 -4 9.25
      vertex 0.5 -4 12.5
      vertex 4.5 -4 9.25
    endloop
  endfacet
  facet normal 0 1 0
    outer loop
      vertex 0.5 -4 12.5
      vertex 0 -4 9.25
      vertex 0 -4 12
    endloop
  endfacet
  facet normal 0 1 0
    outer loop
      vertex 5.5 -4 14.75
      vertex 4 -4 12.5
      vertex 4 -4 14.75
    endloop
  endfacet
  facet normal 0 1 0
    outer loop
      vertex 4.5 -4 9.25
      vertex 0.5 -4 12.5
      vertex 4 -4 12.5
    endloop
  endfacet
  facet normal 0 1 0
    outer loop
      vertex 0.5 -4 12.5
      vertex 0 -4 12
      vertex -4 -4 12.5
    endloop
  endfacet
  facet normal 0 1 -0
    outer loop
      vertex 5.5 -4 12
      vertex 4 -4 12.5
      vertex 5.5 -4 14.75
    endloop
  endfacet
  facet normal 0 1 -0
    outer loop
      vertex 4.5 -4 12
      vertex 4 -4 12.5
      vertex 5.5 -4 12
    endloop
  endfacet
  facet normal 0 1 -0
    outer loop
      vertex 4.5 -4 9.25
      vertex 4 -4 12.5
      vertex 4.5 -4 12
    endloop
  endfacet
  facet normal 0 1 -0
    outer loop
      vertex -3.5 -4 12
      vertex -4 -4 12.5
      vertex 0 -4 12
    endloop
  endfacet
  facet normal 0 1 0
    outer loop
      vertex -5.5 -4 10.75
      vertex -4 -4 12.5
      vertex -3.5 -4 12
    endloop
  endfacet
  facet normal 0 1 0
    outer loop
      vertex -4 -4 12.5
      vertex -5.5 -4 10.75
      vertex -5.5 -4 12.5
    endloop
  endfacet
  facet normal 0 1 -0
    outer loop
      vertex -3.5 -4 9.25
      vertex -5.5 -4 10.75
      vertex -3.5 -4 12
    endloop
  endfacet
  facet normal 0 1 0
    outer loop
      vertex -6.75 -4 9.25
      vertex -5.5 -4 10.75
      vertex -3.5 -4 9.25
    endloop
  endfacet
  facet normal 0 1 0
    outer loop
      vertex -5.5 -4 10.75
      vertex -6.75 -4 9.25
      vertex -6.75 -4 10.75
    endloop
  endfacet
  facet normal 0 1 -0
    outer loop
      vertex 0.5 -4 12.5
      vertex -4 -4 14.75
      vertex 0.5 -4 14.75
    endloop
  endfacet
  facet normal 0 1 0
    outer loop
      vertex -4 -4 14.75
      vertex 0.5 -4 12.5
      vertex -4 -4 12.5
    endloop
  endfacet
  facet normal -1 0 0
    outer loop
      vertex -3.5 -4 9.25
      vertex -3.5 0 12
      vertex -3.5 0 9.25
    endloop
  endfacet
  facet normal -1 -0 0
    outer loop
      vertex -3.5 0 12
      vertex -3.5 -4 9.25
      vertex -3.5 -4 12
    endloop
  endfacet
  facet normal 0 0 -1
    outer loop
      vertex -5.5 -4 12.5
      vertex -4 0 12.5
      vertex -4 -4 12.5
    endloop
  endfacet
  facet normal -0 0 -1
    outer loop
      vertex -4 0 12.5
      vertex -5.5 -4 12.5
      vertex -5.5 0 12.5
    endloop
  endfacet
  facet normal -1 0 0
    outer loop
      vertex 0.5 -4 12.5
      vertex 0.5 0 14.75
      vertex 0.5 0 12.5
    endloop
  endfacet
  facet normal -1 -0 0
    outer loop
      vertex 0.5 0 14.75
      vertex 0.5 -4 12.5
      vertex 0.5 -4 14.75
    endloop
  endfacet
  facet normal 1 -0 0
    outer loop
      vertex -4 -4 14.75
      vertex -4 0 12.5
      vertex -4 0 14.75
    endloop
  endfacet
  facet normal 1 0 0
    outer loop
      vertex -4 0 12.5
      vertex -4 -4 14.75
      vertex -4 -4 12.5
    endloop
  endfacet
  facet normal -0 0 1
    outer loop
      vertex -3.5 0 12
      vertex 0 -4 12
      vertex 0 0 12
    endloop
  endfacet
  facet normal 0 0 1
    outer loop
      vertex 0 -4 12
      vertex -3.5 0 12
      vertex -3.5 -4 12
    endloop
  endfacet
  facet normal -1 0 0
    outer loop
      vertex 4.5 -4 9.25
      vertex 4.5 0 12
      vertex 4.5 0 9.25
    endloop
  endfacet
  facet normal -1 -0 0
    outer loop
      vertex 4.5 0 12
      vertex 4.5 -4 9.25
      vertex 4.5 -4 12
    endloop
  endfacet
  facet normal 1 -0 0
    outer loop
      vertex 0 -4 12
      vertex 0 0 9.25
      vertex 0 0 12
    endloop
  endfacet
  facet normal 1 0 0
    outer loop
      vertex 0 0 9.25
      vertex 0 -4 12
      vertex 0 -4 9.25
    endloop
  endfacet
  facet normal 0 0 -1
    outer loop
      vertex 0.5 -4 12.5
      vertex 4 0 12.5
      vertex 4 -4 12.5
    endloop
  endfacet
  facet normal -0 0 -1
    outer loop
      vertex 4 0 12.5
      vertex 0.5 -4 12.5
      vertex 0.5 0 12.5
    endloop
  endfacet
  facet normal 1 -0 0
    outer loop
      vertex 4 -4 14.75
      vertex 4 0 12.5
      vertex 4 0 14.75
    endloop
  endfacet
  facet normal 1 0 0
    outer loop
      vertex 4 0 12.5
      vertex 4 -4 14.75
      vertex 4 -4 12.5
    endloop
  endfacet
  facet normal -0 0 1
    outer loop
      vertex 4.5 0 12
      vertex 5.5 -4 12
      vertex 5.5 0 12
    endloop
  endfacet
  facet normal 0 0 1
    outer loop
      vertex 5.5 -4 12
      vertex 4.5 0 12
      vertex 4.5 -4 12
    endloop
  endfacet
  facet normal 0 1 -0
    outer loop
      vertex -4 0 12.5
      vertex -5.5 0 14.75
      vertex -4 0 14.75
    endloop
  endfacet
  facet normal 0 1 0
    outer loop
      vertex -5.5 0 14.75
      vertex -4 0 12.5
      vertex -5.5 0 12.5
    endloop
  endfacet
  facet normal 0 1 -0
    outer loop
      vertex 0 0 9.25
      vertex -3.5 0 12
      vertex 0 0 12
    endloop
  endfacet
  facet normal 0 1 0
    outer loop
      vertex -3.5 0 12
      vertex 0 0 9.25
      vertex -3.5 0 9.25
    endloop
  endfacet
  facet normal 0 1 -0
    outer loop
      vertex 4 0 12.5
      vertex 0.5 0 14.75
      vertex 4 0 14.75
    endloop
  endfacet
  facet normal 0 1 0
    outer loop
      vertex 0.5 0 14.75
      vertex 4 0 12.5
      vertex 0.5 0 12.5
    endloop
  endfacet
  facet normal 0 1 0
    outer loop
      vertex 6.75 0 10.75
      vertex 6.75 0 9.25
      vertex 5.5 0 10.75
    endloop
  endfacet
  facet normal 0 1 -0
    outer loop
      vertex 5.5 0 10.75
      vertex 4.5 0 12
      vertex 5.5 0 12
    endloop
  endfacet
  facet normal 0 1 0
    outer loop
      vertex 5.5 0 10.75
      vertex 4.5 0 9.25
      vertex 4.5 0 12
    endloop
  endfacet
  facet normal 0 1 0
    outer loop
      vertex 4.5 0 9.25
      vertex 5.5 0 10.75
      vertex 6.75 0 9.25
    endloop
  endfacet
  facet normal 0 0 1
    outer loop
      vertex -4 0 14.75
      vertex -5.5 0 14.75
      vertex -4 -4 14.75
    endloop
  endfacet
  facet normal 0 0 1
    outer loop
      vertex 4 0 14.75
      vertex 0.5 0 14.75
      vertex 4 -4 14.75
    endloop
  endfacet
  facet normal -0 0 1
    outer loop
      vertex 4 -4 14.75
      vertex 5.5 -132 14.75
      vertex 5.5 -4 14.75
    endloop
  endfacet
  facet normal 0 0 1
    outer loop
      vertex 0.5 -4 14.75
      vertex 4 -4 14.75
      vertex 0.5 0 14.75
    endloop
  endfacet
  facet normal 0 0 1
    outer loop
      vertex 4 -4 14.75
      vertex 0.5 -4 14.75
      vertex 5.5 -132 14.75
    endloop
  endfacet
  facet normal 0 0 1
    outer loop
      vertex -5.5 -132 14.75
      vertex 0.5 -4 14.75
      vertex -4 -4 14.75
    endloop
  endfacet
  facet normal 0 0 1
    outer loop
      vertex -5.5 -132 14.75
      vertex -4 -4 14.75
      vertex -5.5 0 14.75
    endloop
  endfacet
  facet normal 0 0 1
    outer loop
      vertex 0.5 -4 14.75
      vertex -5.5 -132 14.75
      vertex 5.5 -132 14.75
    endloop
  endfacet
  facet normal 0 0 -1
    outer loop
      vertex 6.75 -132 9.25
      vertex 4.5 -4 9.25
      vertex 6.75 0 9.25
    endloop
  endfacet
  facet normal 0 0 -1
    outer loop
      vertex 6.75 -132 9.25
      vertex 0 -4 9.25
      vertex 4.5 -4 9.25
    endloop
  endfacet
  facet normal 0 0 -1
    outer loop
      vertex 0 -4 9.25
      vertex -3.5 -4 9.25
      vertex 0 0 9.25
    endloop
  endfacet
  facet normal 0 0 -1
    outer loop
      vertex -6.75 -132 9.25
      vertex 0 -4 9.25
      vertex 6.75 -132 9.25
    endloop
  endfacet
  facet normal -0 0 -1
    outer loop
      vertex 0 -4 9.25
      vertex -6.75 -132 9.25
      vertex -3.5 -4 9.25
    endloop
  endfacet
  facet normal -0 0 -1
    outer loop
      vertex -3.5 -4 9.25
      vertex -6.75 -132 9.25
      vertex -6.75 -4 9.25
    endloop
  endfacet
  facet normal -0 0 -1
    outer loop
      vertex 6.75 0 9.25
      vertex 4.5 -4 9.25
      vertex 4.5 0 9.25
    endloop
  endfacet
  facet normal -0 0 -1
    outer loop
      vertex 0 0 9.25
      vertex -3.5 -4 9.25
      vertex -3.5 0 9.25
    endloop
  endfacet
  facet normal 0 -1 0
    outer loop
      vertex -6.75 -132 9.25
      vertex -5.5 -132 10.75
      vertex -6.75 -132 10.75
    endloop
  endfacet
  facet normal 0 -1 -0
    outer loop
      vertex -5.5 -132 10.75
      vertex -6.75 -132 9.25
      vertex 5.5 -132 10.75
    endloop
  endfacet
  facet normal 0 -1 0
    outer loop
      vertex 6.75 -132 9.25
      vertex 5.5 -132 10.75
      vertex -6.75 -132 9.25
    endloop
  endfacet
  facet normal 0 -1 0
    outer loop
      vertex 5.5 -132 10.75
      vertex 6.75 -132 9.25
      vertex 6.75 -132 10.75
    endloop
  endfacet
  facet normal 0 -1 0
    outer loop
      vertex -5.5 -132 10.75
      vertex 5.5 -132 14.75
      vertex -5.5 -132 14.75
    endloop
  endfacet
  facet normal 0 -1 -0
    outer loop
      vertex 5.5 -132 14.75
      vertex -5.5 -132 10.75
      vertex 5.5 -132 10.75
    endloop
  endfacet
  facet normal 1 -0 0
    outer loop
      vertex 6.75 -132 10.75
      vertex 6.75 0 9.25
      vertex 6.75 0 10.75
    endloop
  endfacet
  facet normal 1 0 0
    outer loop
      vertex 6.75 0 9.25
      vertex 6.75 -132 10.75
      vertex 6.75 -132 9.25
    endloop
  endfacet
  facet normal -0 0 1
    outer loop
      vertex 5.5 0 10.75
      vertex 6.75 -132 10.75
      vertex 6.75 0 10.75
    endloop
  endfacet
  facet normal 0 0 1
    outer loop
      vertex 6.75 -132 10.75
      vertex 5.5 0 10.75
      vertex 5.5 -132 10.75
    endloop
  endfacet
  facet normal -0 0 1
    outer loop
      vertex -6.75 -4 10.75
      vertex -5.5 -132 10.75
      vertex -5.5 -4 10.75
    endloop
  endfacet
  facet normal 0 0 1
    outer loop
      vertex -5.5 -132 10.75
      vertex -6.75 -4 10.75
      vertex -6.75 -132 10.75
    endloop
  endfacet
  facet normal -1 0 0
    outer loop
      vertex -6.75 -132 9.25
      vertex -6.75 -4 10.75
      vertex -6.75 -4 9.25
    endloop
  endfacet
  facet normal -1 -0 0
    outer loop
      vertex -6.75 -4 10.75
      vertex -6.75 -132 9.25
      vertex -6.75 -132 10.75
    endloop
  endfacet
  facet normal 1 0 0
    outer loop
      vertex 5.5 -4 14.75
      vertex 5.5 -132 14.75
      vertex 5.5 -4 12
    endloop
  endfacet
  facet normal 1 -0 0
    outer loop
      vertex 5.5 -4 12
      vertex 5.5 0 10.75
      vertex 5.5 0 12
    endloop
  endfacet
  facet normal 1 0 0
    outer loop
      vertex 5.5 -132 10.75
      vertex 5.5 -4 12
      vertex 5.5 -132 14.75
    endloop
  endfacet
  facet normal 1 0 0
    outer loop
      vertex 5.5 -4 12
      vertex 5.5 -132 10.75
      vertex 5.5 0 10.75
    endloop
  endfacet
  facet normal -1 0 0
    outer loop
      vertex -5.5 -4 10.75
      vertex -5.5 -132 10.75
      vertex -5.5 -4 12.5
    endloop
  endfacet
  facet normal -1 0 0
    outer loop
      vertex -5.5 -4 12.5
      vertex -5.5 0 14.75
      vertex -5.5 0 12.5
    endloop
  endfacet
  facet normal -1 0 0
    outer loop
      vertex -5.5 -132 14.75
      vertex -5.5 -4 12.5
      vertex -5.5 -132 10.75
    endloop
  endfacet
  facet normal -1 0 0
    outer loop
      vertex -5.5 -4 12.5
      vertex -5.5 -132 14.75
      vertex -5.5 0 14.75
    endloop
  endfacet
endsolid OpenSCAD_Model
