solid OpenSCAD_Model
  facet normal -0 0 1
    outer loop
      vertex -99 10.25 10.8
      vertex 99 -10.25 10.8
      vertex 99 10.25 10.8
    endloop
  endfacet
  facet normal 0 0 1
    outer loop
      vertex 99 -10.25 10.8
      vertex -99 10.25 10.8
      vertex -99 -10.25 10.8
    endloop
  endfacet
  facet normal 0 0 -1
    outer loop
      vertex -99 -10.25 8.8
      vertex 99 10.25 8.8
      vertex 99 -10.25 8.8
    endloop
  endfacet
  facet normal -0 0 -1
    outer loop
      vertex 99 10.25 8.8
      vertex -99 -10.25 8.8
      vertex -99 10.25 8.8
    endloop
  endfacet
  facet normal 1 -0 0
    outer loop
      vertex 99 -10.25 10.8
      vertex 99 10.25 8.8
      vertex 99 10.25 10.8
    endloop
  endfacet
  facet normal 1 0 0
    outer loop
      vertex 99 10.25 8.8
      vertex 99 -10.25 10.8
      vertex 99 -10.25 8.8
    endloop
  endfacet
  facet normal 0 1 -0
    outer loop
      vertex 99 10.25 8.8
      vertex -99 10.25 10.8
      vertex 99 10.25 10.8
    endloop
  endfacet
  facet normal 0 1 0
    outer loop
      vertex -99 10.25 10.8
      vertex 99 10.25 8.8
      vertex -99 10.25 8.8
    endloop
  endfacet
  facet normal -1 0 0
    outer loop
      vertex -99 -10.25 8.8
      vertex -99 10.25 10.8
      vertex -99 10.25 8.8
    endloop
  endfacet
  facet normal -1 -0 0
    outer loop
      vertex -99 10.25 10.8
      vertex -99 -10.25 8.8
      vertex -99 -10.25 10.8
    endloop
  endfacet
  facet normal 0 -1 0
    outer loop
      vertex -99 -10.25 8.8
      vertex 99 -10.25 10.8
      vertex -99 -10.25 10.8
    endloop
  endfacet
  facet normal 0 -1 -0
    outer loop
      vertex 99 -10.25 10.8
      vertex -99 -10.25 8.8
      vertex 99 -10.25 8.8
    endloop
  endfacet
endsolid OpenSCAD_Model
