solid OpenSCAD_Model
  facet normal 1 0 0
    outer loop
      vertex 10 0 13
      vertex 10 -8 9.5
      vertex 10 0 9.5
    endloop
  endfacet
  facet normal 1 0 0
    outer loop
      vertex 10 -30 13
      vertex 10 -8 1
      vertex 10 -8 9.5
    endloop
  endfacet
  facet normal 1 0 0
    outer loop
      vertex 10 -30 -13
      vertex 10 -8 1
      vertex 10 -30 13
    endloop
  endfacet
  facet normal 1 -0 0
    outer loop
      vertex 10 -30 13
      vertex 10 -8 9.5
      vertex 10 0 13
    endloop
  endfacet
  facet normal 1 0 0
    outer loop
      vertex 10 -8 1
      vertex 10 -30 -13
      vertex 10 -8 -6.5
    endloop
  endfacet
  facet normal 1 0 0
    outer loop
      vertex 10 -8 -6.5
      vertex 10 -30 -13
      vertex 10 -8 -13
    endloop
  endfacet
  facet normal 1 -0 0
    outer loop
      vertex 10 -8 1
      vertex 10 0 -6.5
      vertex 10 0 1
    endloop
  endfacet
  facet normal 1 0 0
    outer loop
      vertex 10 0 -6.5
      vertex 10 -8 1
      vertex 10 -8 -6.5
    endloop
  endfacet
  facet normal -0 0 1
    outer loop
      vertex -10 0 13
      vertex -6 -30 13
      vertex -6 0 13
    endloop
  endfacet
  facet normal 0 0 1
    outer loop
      vertex -6 -30 13
      vertex -10 0 13
      vertex -10 -30 13
    endloop
  endfacet
  facet normal -0 0 1
    outer loop
      vertex 6 0 13
      vertex 10 -30 13
      vertex 10 0 13
    endloop
  endfacet
  facet normal 0 0 1
    outer loop
      vertex 10 -30 13
      vertex 6 0 13
      vertex 6 -30 13
    endloop
  endfacet
  facet normal 0 0 -1
    outer loop
      vertex 10 -30 -13
      vertex 4 -8 -13
      vertex 10 -8 -13
    endloop
  endfacet
  facet normal 0 0 -1
    outer loop
      vertex 4 -8 -13
      vertex -3.5 -8 -13
      vertex 4 0 -13
    endloop
  endfacet
  facet normal 0 0 -1
    outer loop
      vertex 10 -30 -13
      vertex -3.5 -8 -13
      vertex 4 -8 -13
    endloop
  endfacet
  facet normal 0 0 -1
    outer loop
      vertex -10 -30 -13
      vertex -3.5 -8 -13
      vertex 10 -30 -13
    endloop
  endfacet
  facet normal -0 0 -1
    outer loop
      vertex -3.5 -8 -13
      vertex -10 -30 -13
      vertex -10 -8 -13
    endloop
  endfacet
  facet normal -0 0 -1
    outer loop
      vertex 4 0 -13
      vertex -3.5 -8 -13
      vertex -3.5 0 -13
    endloop
  endfacet
  facet normal -1 0 0
    outer loop
      vertex -10 -30 -13
      vertex -10 -8 -6.5
      vertex -10 -8 -13
    endloop
  endfacet
  facet normal -1 -0 0
    outer loop
      vertex -10 -8 -6.5
      vertex -10 -30 -13
      vertex -10 -8 1
    endloop
  endfacet
  facet normal -1 0 0
    outer loop
      vertex -10 -30 13
      vertex -10 -8 1
      vertex -10 -30 -13
    endloop
  endfacet
  facet normal -1 0 0
    outer loop
      vertex -10 -8 -6.5
      vertex -10 0 1
      vertex -10 0 -6.5
    endloop
  endfacet
  facet normal -1 -0 0
    outer loop
      vertex -10 0 1
      vertex -10 -8 -6.5
      vertex -10 -8 1
    endloop
  endfacet
  facet normal -1 0 0
    outer loop
      vertex -10 -8 9.5
      vertex -10 0 13
      vertex -10 0 9.5
    endloop
  endfacet
  facet normal -1 0 0
    outer loop
      vertex -10 -8 9.5
      vertex -10 -30 13
      vertex -10 0 13
    endloop
  endfacet
  facet normal -1 0 0
    outer loop
      vertex -10 -8 1
      vertex -10 -30 13
      vertex -10 -8 9.5
    endloop
  endfacet
  facet normal -1 0 0
    outer loop
      vertex 8 -30 -9
      vertex 8 -8 -6.5
      vertex 8 -8 -9
    endloop
  endfacet
  facet normal -1 -0 0
    outer loop
      vertex 8 -8 -6.5
      vertex 8 -30 -9
      vertex 8 -8 1
    endloop
  endfacet
  facet normal -1 0 0
    outer loop
      vertex 8 -30 6.5
      vertex 8 -8 1
      vertex 8 -30 -9
    endloop
  endfacet
  facet normal -1 0 0
    outer loop
      vertex 8 -8 1
      vertex 8 -30 6.5
      vertex 8 -8 6.5
    endloop
  endfacet
  facet normal -1 0 0
    outer loop
      vertex 8 -8 -6.5
      vertex 8 0 1
      vertex 8 0 -6.5
    endloop
  endfacet
  facet normal -1 -0 0
    outer loop
      vertex 8 0 1
      vertex 8 -8 -6.5
      vertex 8 -8 1
    endloop
  endfacet
  facet normal -1 0 0
    outer loop
      vertex 8 -8 8.5
      vertex 8 -30 8.5
      vertex 8 -8 9.5
    endloop
  endfacet
  facet normal -1 0 0
    outer loop
      vertex 8 -8 9.5
      vertex 8 0 11
      vertex 8 0 9.5
    endloop
  endfacet
  facet normal -1 0 0
    outer loop
      vertex 8 -30 11
      vertex 8 -8 9.5
      vertex 8 -30 8.5
    endloop
  endfacet
  facet normal -1 0 0
    outer loop
      vertex 8 -8 9.5
      vertex 8 -30 11
      vertex 8 0 11
    endloop
  endfacet
  facet normal 0 0 1
    outer loop
      vertex 4 0 -9
      vertex -3.5 0 -9
      vertex 4 -8 -9
    endloop
  endfacet
  facet normal -0 0 1
    outer loop
      vertex 4 -8 -9
      vertex 8 -30 -9
      vertex 8 -8 -9
    endloop
  endfacet
  facet normal 0 0 1
    outer loop
      vertex -3.5 -8 -9
      vertex 4 -8 -9
      vertex -3.5 0 -9
    endloop
  endfacet
  facet normal 0 0 1
    outer loop
      vertex 4 -8 -9
      vertex -3.5 -8 -9
      vertex 8 -30 -9
    endloop
  endfacet
  facet normal 0 0 1
    outer loop
      vertex -8 -30 -9
      vertex -3.5 -8 -9
      vertex -8 -8 -9
    endloop
  endfacet
  facet normal 0 0 1
    outer loop
      vertex -3.5 -8 -9
      vertex -8 -30 -9
      vertex 8 -30 -9
    endloop
  endfacet
  facet normal 1 -0 0
    outer loop
      vertex -8 -30 6.5
      vertex -8 -8 1
      vertex -8 -8 6.5
    endloop
  endfacet
  facet normal 1 0 0
    outer loop
      vertex -8 -30 -9
      vertex -8 -8 1
      vertex -8 -30 6.5
    endloop
  endfacet
  facet normal 1 0 0
    outer loop
      vertex -8 -8 1
      vertex -8 -30 -9
      vertex -8 -8 -6.5
    endloop
  endfacet
  facet normal 1 0 0
    outer loop
      vertex -8 -8 -6.5
      vertex -8 -30 -9
      vertex -8 -8 -9
    endloop
  endfacet
  facet normal 1 -0 0
    outer loop
      vertex -8 -8 1
      vertex -8 0 -6.5
      vertex -8 0 1
    endloop
  endfacet
  facet normal 1 0 0
    outer loop
      vertex -8 0 -6.5
      vertex -8 -8 1
      vertex -8 -8 -6.5
    endloop
  endfacet
  facet normal 1 0 0
    outer loop
      vertex -8 0 11
      vertex -8 -8 9.5
      vertex -8 0 9.5
    endloop
  endfacet
  facet normal 1 -0 0
    outer loop
      vertex -8 -30 11
      vertex -8 -8 9.5
      vertex -8 0 11
    endloop
  endfacet
  facet normal 1 0 0
    outer loop
      vertex -8 -30 8.5
      vertex -8 -8 9.5
      vertex -8 -30 11
    endloop
  endfacet
  facet normal 1 0 0
    outer loop
      vertex -8 -8 9.5
      vertex -8 -30 8.5
      vertex -8 -8 8.5
    endloop
  endfacet
  facet normal 1 -0 0
    outer loop
      vertex -6 -30 13
      vertex -6 0 11
      vertex -6 0 13
    endloop
  endfacet
  facet normal 1 0 0
    outer loop
      vertex -6 0 11
      vertex -6 -30 13
      vertex -6 -30 11
    endloop
  endfacet
  facet normal 0 0 -1
    outer loop
      vertex -8 -30 11
      vertex -6 0 11
      vertex -6 -30 11
    endloop
  endfacet
  facet normal -0 0 -1
    outer loop
      vertex -6 0 11
      vertex -8 -30 11
      vertex -8 0 11
    endloop
  endfacet
  facet normal 1 -0 0
    outer loop
      vertex -6 -30 8.5
      vertex -6 -8 6.5
      vertex -6 -8 8.5
    endloop
  endfacet
  facet normal 1 0 0
    outer loop
      vertex -6 -8 6.5
      vertex -6 -30 8.5
      vertex -6 -30 6.5
    endloop
  endfacet
  facet normal -0 0 1
    outer loop
      vertex -8 -8 8.5
      vertex -6 -30 8.5
      vertex -6 -8 8.5
    endloop
  endfacet
  facet normal 0 0 1
    outer loop
      vertex -6 -30 8.5
      vertex -8 -8 8.5
      vertex -8 -30 8.5
    endloop
  endfacet
  facet normal 0 0 -1
    outer loop
      vertex -8 -30 6.5
      vertex -6 -8 6.5
      vertex -6 -30 6.5
    endloop
  endfacet
  facet normal -0 0 -1
    outer loop
      vertex -6 -8 6.5
      vertex -8 -30 6.5
      vertex -8 -8 6.5
    endloop
  endfacet
  facet normal 0 0 -1
    outer loop
      vertex 6 -30 11
      vertex 8 0 11
      vertex 8 -30 11
    endloop
  endfacet
  facet normal -0 0 -1
    outer loop
      vertex 8 0 11
      vertex 6 -30 11
      vertex 6 0 11
    endloop
  endfacet
  facet normal -1 0 0
    outer loop
      vertex 6 -30 11
      vertex 6 0 13
      vertex 6 0 11
    endloop
  endfacet
  facet normal -1 -0 0
    outer loop
      vertex 6 0 13
      vertex 6 -30 11
      vertex 6 -30 13
    endloop
  endfacet
  facet normal -0 0 1
    outer loop
      vertex 6 -8 8.5
      vertex 8 -30 8.5
      vertex 8 -8 8.5
    endloop
  endfacet
  facet normal 0 0 1
    outer loop
      vertex 8 -30 8.5
      vertex 6 -8 8.5
      vertex 6 -30 8.5
    endloop
  endfacet
  facet normal 0 0 -1
    outer loop
      vertex 6 -30 6.5
      vertex 8 -8 6.5
      vertex 8 -30 6.5
    endloop
  endfacet
  facet normal -0 0 -1
    outer loop
      vertex 8 -8 6.5
      vertex 6 -30 6.5
      vertex 6 -8 6.5
    endloop
  endfacet
  facet normal -1 0 0
    outer loop
      vertex 6 -30 6.5
      vertex 6 -8 8.5
      vertex 6 -8 6.5
    endloop
  endfacet
  facet normal -1 -0 0
    outer loop
      vertex 6 -8 8.5
      vertex 6 -30 6.5
      vertex 6 -30 8.5
    endloop
  endfacet
  facet normal 0 1 0
    outer loop
      vertex -3.5 -8 -9
      vertex -3.5 -8 -13
      vertex -8 -8 -9
    endloop
  endfacet
  facet normal 0 1 -0
    outer loop
      vertex -8 -8 -9
      vertex -10 -8 -6.5
      vertex -8 -8 -6.5
    endloop
  endfacet
  facet normal 0 1 0
    outer loop
      vertex -8 -8 -9
      vertex -10 -8 -13
      vertex -10 -8 -6.5
    endloop
  endfacet
  facet normal 0 1 0
    outer loop
      vertex -10 -8 -13
      vertex -8 -8 -9
      vertex -3.5 -8 -13
    endloop
  endfacet
  facet normal 0 1 0
    outer loop
      vertex 10 -8 -6.5
      vertex 8 -8 -9
      vertex 8 -8 -6.5
    endloop
  endfacet
  facet normal 0 1 -0
    outer loop
      vertex 10 -8 -13
      vertex 8 -8 -9
      vertex 10 -8 -6.5
    endloop
  endfacet
  facet normal 0 1 0
    outer loop
      vertex 4 -8 -13
      vertex 8 -8 -9
      vertex 10 -8 -13
    endloop
  endfacet
  facet normal 0 1 0
    outer loop
      vertex 8 -8 -9
      vertex 4 -8 -13
      vertex 4 -8 -9
    endloop
  endfacet
  facet normal 0 1 0
    outer loop
      vertex -6 -8 8.5
      vertex -6 -8 6.5
      vertex -8 -8 8.5
    endloop
  endfacet
  facet normal 0 1 -0
    outer loop
      vertex -8 -8 8.5
      vertex -10 -8 9.5
      vertex -8 -8 9.5
    endloop
  endfacet
  facet normal 0 1 0
    outer loop
      vertex -8 -8 6.5
      vertex -8 -8 8.5
      vertex -6 -8 6.5
    endloop
  endfacet
  facet normal 0 1 0
    outer loop
      vertex -8 -8 8.5
      vertex -8 -8 6.5
      vertex -10 -8 9.5
    endloop
  endfacet
  facet normal 0 1 0
    outer loop
      vertex -10 -8 1
      vertex -8 -8 6.5
      vertex -8 -8 1
    endloop
  endfacet
  facet normal 0 1 0
    outer loop
      vertex -8 -8 6.5
      vertex -10 -8 1
      vertex -10 -8 9.5
    endloop
  endfacet
  facet normal 0 1 0
    outer loop
      vertex 10 -8 9.5
      vertex 8 -8 8.5
      vertex 8 -8 9.5
    endloop
  endfacet
  facet normal 0 1 0
    outer loop
      vertex 8 -8 8.5
      vertex 8 -8 6.5
      vertex 6 -8 8.5
    endloop
  endfacet
  facet normal 0 1 0
    outer loop
      vertex 10 -8 9.5
      vertex 8 -8 6.5
      vertex 8 -8 8.5
    endloop
  endfacet
  facet normal 0 1 -0
    outer loop
      vertex 10 -8 1
      vertex 8 -8 6.5
      vertex 10 -8 9.5
    endloop
  endfacet
  facet normal 0 1 0
    outer loop
      vertex 8 -8 6.5
      vertex 10 -8 1
      vertex 8 -8 1
    endloop
  endfacet
  facet normal 0 1 0
    outer loop
      vertex 6 -8 8.5
      vertex 8 -8 6.5
      vertex 6 -8 6.5
    endloop
  endfacet
  facet normal -1 0 0
    outer loop
      vertex -3.5 -8 -13
      vertex -3.5 0 -9
      vertex -3.5 0 -13
    endloop
  endfacet
  facet normal -1 -0 0
    outer loop
      vertex -3.5 0 -9
      vertex -3.5 -8 -13
      vertex -3.5 -8 -9
    endloop
  endfacet
  facet normal 0 0 -1
    outer loop
      vertex -10 -8 -6.5
      vertex -8 0 -6.5
      vertex -8 -8 -6.5
    endloop
  endfacet
  facet normal -0 0 -1
    outer loop
      vertex -8 0 -6.5
      vertex -10 -8 -6.5
      vertex -10 0 -6.5
    endloop
  endfacet
  facet normal 0 0 -1
    outer loop
      vertex -10 -8 9.5
      vertex -8 0 9.5
      vertex -8 -8 9.5
    endloop
  endfacet
  facet normal -0 0 -1
    outer loop
      vertex -8 0 9.5
      vertex -10 -8 9.5
      vertex -10 0 9.5
    endloop
  endfacet
  facet normal -0 0 1
    outer loop
      vertex -10 0 1
      vertex -8 -8 1
      vertex -8 0 1
    endloop
  endfacet
  facet normal 0 0 1
    outer loop
      vertex -8 -8 1
      vertex -10 0 1
      vertex -10 -8 1
    endloop
  endfacet
  facet normal 1 -0 0
    outer loop
      vertex 4 -8 -9
      vertex 4 0 -13
      vertex 4 0 -9
    endloop
  endfacet
  facet normal 1 0 0
    outer loop
      vertex 4 0 -13
      vertex 4 -8 -9
      vertex 4 -8 -13
    endloop
  endfacet
  facet normal 0 0 -1
    outer loop
      vertex 8 -8 -6.5
      vertex 10 0 -6.5
      vertex 10 -8 -6.5
    endloop
  endfacet
  facet normal -0 0 -1
    outer loop
      vertex 10 0 -6.5
      vertex 8 -8 -6.5
      vertex 8 0 -6.5
    endloop
  endfacet
  facet normal 0 0 -1
    outer loop
      vertex 8 -8 9.5
      vertex 10 0 9.5
      vertex 10 -8 9.5
    endloop
  endfacet
  facet normal -0 0 -1
    outer loop
      vertex 10 0 9.5
      vertex 8 -8 9.5
      vertex 8 0 9.5
    endloop
  endfacet
  facet normal -0 0 1
    outer loop
      vertex 8 0 1
      vertex 10 -8 1
      vertex 10 0 1
    endloop
  endfacet
  facet normal 0 0 1
    outer loop
      vertex 10 -8 1
      vertex 8 0 1
      vertex 8 -8 1
    endloop
  endfacet
  facet normal 0 1 0
    outer loop
      vertex -8 0 11
      vertex -6 0 13
      vertex -6 0 11
    endloop
  endfacet
  facet normal 0 1 0
    outer loop
      vertex -6 0 13
      vertex -8 0 11
      vertex -10 0 13
    endloop
  endfacet
  facet normal 0 1 0
    outer loop
      vertex -10 0 9.5
      vertex -8 0 11
      vertex -8 0 9.5
    endloop
  endfacet
  facet normal 0 1 0
    outer loop
      vertex -8 0 11
      vertex -10 0 9.5
      vertex -10 0 13
    endloop
  endfacet
  facet normal 0 1 -0
    outer loop
      vertex -8 0 -6.5
      vertex -10 0 1
      vertex -8 0 1
    endloop
  endfacet
  facet normal 0 1 0
    outer loop
      vertex -10 0 1
      vertex -8 0 -6.5
      vertex -10 0 -6.5
    endloop
  endfacet
  facet normal 0 1 -0
    outer loop
      vertex 4 0 -13
      vertex -3.5 0 -9
      vertex 4 0 -9
    endloop
  endfacet
  facet normal 0 1 0
    outer loop
      vertex -3.5 0 -9
      vertex 4 0 -13
      vertex -3.5 0 -13
    endloop
  endfacet
  facet normal 0 1 -0
    outer loop
      vertex 10 0 -6.5
      vertex 8 0 1
      vertex 10 0 1
    endloop
  endfacet
  facet normal 0 1 0
    outer loop
      vertex 8 0 1
      vertex 10 0 -6.5
      vertex 8 0 -6.5
    endloop
  endfacet
  facet normal 0 1 0
    outer loop
      vertex 10 0 13
      vertex 8 0 11
      vertex 6 0 13
    endloop
  endfacet
  facet normal 0 1 -0
    outer loop
      vertex 10 0 9.5
      vertex 8 0 11
      vertex 10 0 13
    endloop
  endfacet
  facet normal 0 1 0
    outer loop
      vertex 8 0 11
      vertex 10 0 9.5
      vertex 8 0 9.5
    endloop
  endfacet
  facet normal 0 1 0
    outer loop
      vertex 6 0 13
      vertex 8 0 11
      vertex 6 0 11
    endloop
  endfacet
  facet normal 0 -1 0
    outer loop
      vertex -10 -30 13
      vertex -8 -30 11
      vertex -6 -30 13
    endloop
  endfacet
  facet normal 0 -1 0
    outer loop
      vertex -10 -30 13
      vertex -8 -30 8.5
      vertex -8 -30 11
    endloop
  endfacet
  facet normal 0 -1 0
    outer loop
      vertex -8 -30 8.5
      vertex -8 -30 6.5
      vertex -6 -30 8.5
    endloop
  endfacet
  facet normal 0 -1 0
    outer loop
      vertex -10 -30 13
      vertex -8 -30 6.5
      vertex -8 -30 8.5
    endloop
  endfacet
  facet normal 0 -1 0
    outer loop
      vertex -10 -30 -13
      vertex -8 -30 6.5
      vertex -10 -30 13
    endloop
  endfacet
  facet normal 0 -1 -0
    outer loop
      vertex -8 -30 -9
      vertex -10 -30 -13
      vertex 8 -30 -9
    endloop
  endfacet
  facet normal 0 -1 -0
    outer loop
      vertex -8 -30 6.5
      vertex -10 -30 -13
      vertex -8 -30 -9
    endloop
  endfacet
  facet normal 0 -1 -0
    outer loop
      vertex -6 -30 13
      vertex -8 -30 11
      vertex -6 -30 11
    endloop
  endfacet
  facet normal 0 -1 -0
    outer loop
      vertex -6 -30 8.5
      vertex -8 -30 6.5
      vertex -6 -30 6.5
    endloop
  endfacet
  facet normal 0 -1 0
    outer loop
      vertex 6 -30 8.5
      vertex 6 -30 6.5
      vertex 8 -30 8.5
    endloop
  endfacet
  facet normal 0 -1 0
    outer loop
      vertex 8 -30 11
      vertex 6 -30 13
      vertex 6 -30 11
    endloop
  endfacet
  facet normal 0 -1 0
    outer loop
      vertex 6 -30 13
      vertex 8 -30 11
      vertex 10 -30 13
    endloop
  endfacet
  facet normal 0 -1 0
    outer loop
      vertex 8 -30 8.5
      vertex 10 -30 13
      vertex 8 -30 11
    endloop
  endfacet
  facet normal 0 -1 0
    outer loop
      vertex 8 -30 6.5
      vertex 8 -30 8.5
      vertex 6 -30 6.5
    endloop
  endfacet
  facet normal 0 -1 0
    outer loop
      vertex 8 -30 6.5
      vertex 10 -30 13
      vertex 8 -30 8.5
    endloop
  endfacet
  facet normal 0 -1 0
    outer loop
      vertex 10 -30 -13
      vertex 8 -30 6.5
      vertex 8 -30 -9
    endloop
  endfacet
  facet normal 0 -1 0
    outer loop
      vertex 8 -30 6.5
      vertex 10 -30 -13
      vertex 10 -30 13
    endloop
  endfacet
  facet normal 0 -1 0
    outer loop
      vertex 10 -30 -13
      vertex 8 -30 -9
      vertex -10 -30 -13
    endloop
  endfacet
endsolid OpenSCAD_Model
